<svg width="24" height="24" viewBox="0 0 24 24" fill="none" xmlns="http://www.w3.org/2000/svg">
<path d="M2.69543 7.18322L11.6954 11.1833L12.3046 9.8125L3.30463 5.8125L2.69543 7.18322ZM12.75 21.4979V10.4979H11.25V21.4979H12.75ZM12.3046 11.1833L21.3046 7.18322L20.6954 5.8125L11.6954 9.8125L12.3046 11.1833Z" fill="#8E9293"/>
<path d="M3 17.1082V6.88802C3 6.65091 3.13964 6.43604 3.35632 6.33974L11.7563 2.6064C11.9115 2.53745 12.0885 2.53745 12.2437 2.6064L20.6437 6.33974C20.8604 6.43604 21 6.65091 21 6.88802V17.1082C21 17.3453 20.8604 17.5602 20.6437 17.6565L12.2437 21.3898C12.0885 21.4587 11.9115 21.4587 11.7563 21.3898L3.35632 17.6565C3.13964 17.5602 3 17.3453 3 17.1082Z" stroke="#8E9293" stroke-width="1.5" stroke-linecap="round" stroke-linejoin="round"/>
<path d="M7.5 4.5L16.1437 8.34164C16.3604 8.43794 16.5 8.65281 16.5 8.88992V12.5" stroke="#8E9293" stroke-width="1.5" stroke-linecap="round" stroke-linejoin="round"/>
</svg>
