<svg width="1320" height="259" viewBox="0 0 1320 259" fill="none" xmlns="http://www.w3.org/2000/svg">
<g clip-path="url(#clip0_1399_18922)">
<path d="M1276.34 185.543C1305.44 185.543 1319.99 194.784 1319.99 213.265C1319.99 221.933 1318.02 229.326 1314.06 235.444C1310.1 241.435 1303.02 246.151 1292.81 249.593C1282.59 252.906 1268.43 254.564 1250.3 254.564H1164.13C1165.16 229.836 1165.67 206.701 1165.67 185.161C1165.67 163.62 1165.16 140.485 1164.13 115.758H1209.13V115.949H1249.92C1265.74 115.949 1278.19 117.287 1287.26 119.964C1296.44 122.513 1302.89 126.273 1306.59 131.244C1310.42 136.215 1312.34 142.524 1312.34 150.172C1312.34 157.948 1309.59 164.894 1304.11 171.012C1298.74 177.003 1289.49 181.846 1276.34 185.543ZM1209.13 150.746V168.527H1245.9C1253.81 168.527 1259.3 167.826 1262.36 166.423C1265.55 165.021 1267.15 162.472 1267.15 158.776C1267.15 155.845 1265.49 153.805 1262.17 152.657C1258.98 151.383 1253.56 150.746 1245.9 150.746H1209.13ZM1245.9 219.575C1252.53 219.575 1257.58 219.321 1261.02 218.811C1264.6 218.173 1267.15 217.153 1268.68 215.751C1270.22 214.222 1270.98 212.182 1270.98 209.633C1270.98 206.319 1269.13 203.961 1265.43 202.559C1261.85 201.029 1255.34 200.265 1245.9 200.265H1209.13V219.575H1245.9Z" fill="white"/>
<path d="M1063.48 256.475C1034.25 256.475 1012.74 250.166 998.956 237.547C985.171 224.801 978.277 206.956 978.277 184.012C978.277 161.325 985.107 143.607 998.765 130.861C1012.55 118.115 1034.12 111.742 1063.48 111.742C1092.97 111.742 1114.54 118.115 1128.2 130.861C1141.99 143.607 1148.88 161.325 1148.88 184.012C1148.88 207.083 1142.05 224.928 1128.39 237.547C1114.73 250.166 1093.1 256.475 1063.48 256.475ZM1063.48 217.471C1077.65 217.471 1087.86 214.795 1094.12 209.441C1100.37 203.96 1103.5 195.485 1103.5 184.012C1103.5 172.796 1100.37 164.448 1094.12 158.967C1087.86 153.485 1077.65 150.745 1063.48 150.745C1049.44 150.745 1039.29 153.485 1033.04 158.967C1026.78 164.448 1023.66 172.796 1023.66 184.012C1023.66 195.357 1026.78 203.77 1033.04 209.25C1039.29 214.731 1049.44 217.471 1063.48 217.471Z" fill="white"/>
<path d="M948.068 115.758L963.003 254.564H913.412L910.348 155.525L891.201 254.564H841.036L821.506 156.29L818.634 254.564H769.043L783.978 115.758H849.077L865.736 206.192L880.288 115.758H948.068Z" fill="white"/>
<path d="M668.387 256.475C639.156 256.475 617.647 250.166 603.862 237.547C590.076 224.801 583.184 206.956 583.184 184.012C583.184 161.325 590.012 143.607 603.67 130.861C617.456 118.115 639.029 111.742 668.387 111.742C697.874 111.742 719.446 118.115 733.105 130.861C746.89 143.607 753.783 161.325 753.783 184.012C753.783 207.083 746.954 224.928 733.296 237.547C719.637 250.166 698.002 256.475 668.387 256.475ZM668.387 217.471C682.557 217.471 692.768 214.795 699.023 209.441C705.277 203.96 708.405 195.485 708.405 184.012C708.405 172.796 705.277 164.448 699.023 158.967C692.768 153.485 682.557 150.745 668.387 150.745C654.346 150.745 644.198 153.485 637.944 158.967C631.689 164.448 628.561 172.796 628.561 184.012C628.561 195.357 631.689 203.77 637.944 209.25C644.198 214.731 654.346 217.471 668.387 217.471Z" fill="white"/>
<path d="M560.022 220.531H567.872V258.388H522.494H437.098H391.72V220.531H401.294C406.783 219.511 410.995 217.281 413.93 213.84C416.866 210.398 419.037 204.917 420.44 197.397C421.589 191.151 422.163 176.939 422.163 154.76L421.972 115.758L560.022 115.949V220.531ZM465.053 212.31C464.287 215.878 463.585 218.619 462.946 220.531H511.58V153.232H468.691L468.499 164.32C468.499 174.008 468.244 182.548 467.734 189.94C467.351 197.205 466.457 204.662 465.053 212.31Z" fill="white"/>
<path d="M324.607 232.14L323.653 230.898V232.97L324.607 232.14Z" fill="white"/>
<path fill-rule="evenodd" clip-rule="evenodd" d="M324.607 232.143C344.949 216.561 360.207 195.305 368.451 171.063C376.695 146.822 377.555 120.684 370.923 95.9548C364.291 71.2253 350.463 49.015 331.189 32.1328C311.916 15.2505 288.061 4.45434 262.643 1.10958C237.225 -2.23517 211.384 2.02169 188.388 13.3419C165.393 24.662 146.275 42.5371 133.453 64.7066C120.631 86.8761 114.681 112.345 116.355 137.89C117.648 157.62 123.549 180.07 133.308 197.098L182.29 147.207C181.061 142.83 180.283 138.316 179.982 133.734C179.132 120.754 182.156 107.813 188.67 96.549C195.185 85.2845 204.898 76.2021 216.583 70.4502C228.267 64.6984 241.397 62.5354 254.312 64.2349C267.228 65.9344 279.348 71.4201 289.141 79.998C298.934 88.576 305.96 99.8612 309.33 112.426C312.7 124.992 312.263 138.273 308.074 150.589C306.274 155.883 303.816 160.895 300.778 165.519L323.653 187.816V230.902L324.607 232.143Z" fill="white"/>
<path d="M50.495 258.882V91.413C32.9315 97.2634 16.0999 100.554 0 101.286V36.1996C31.9558 30.8367 54.7638 18.7702 68.4243 0H142.337V258.882H50.495Z" fill="white"/>
<path d="M224.86 187.768L182.607 147.57H197.168L238.851 187.768V258.183H224.86V187.768Z" fill="white"/>
<path d="M253.128 187.768L210.874 147.57H225.435L267.117 187.768V258.183H253.128V187.768Z" fill="white"/>
<path d="M281.388 187.768L239.135 147.57H253.695L295.378 187.768V258.183H281.388V187.768Z" fill="white"/>
<path d="M309.656 187.768L267.402 147.57H281.963L323.646 187.768V258.183H309.656V187.768Z" fill="white"/>
<path d="M181.431 225.695V249.353H166.025V225.695H181.431ZM200.212 225.695V249.353H184.656V225.695H200.212ZM200.212 222.981H184.656V199.539H200.212V222.981ZM181.431 222.981H166.025V199.539H181.431V222.981Z" fill="white"/>
</g>
<defs>
<clipPath id="clip0_1399_18922">
<rect width="1320" height="259" fill="white"/>
</clipPath>
</defs>
</svg>
