<svg width="24" height="24" viewBox="0 0 24 24" fill="none" xmlns="http://www.w3.org/2000/svg">
<path d="M4.9984 2H2V4.9984H4.9984V2Z" stroke="#8E9293" stroke-width="1.5" stroke-miterlimit="1.5" stroke-linecap="round" stroke-linejoin="round"/>
<path d="M4.99902 3.50049H18.9992" stroke="#8E9293" stroke-width="1.5" stroke-miterlimit="1.5" stroke-linecap="round" stroke-linejoin="round"/>
<path d="M3.5 4.99805V19" stroke="#8E9293" stroke-width="1.5" stroke-miterlimit="1.5" stroke-linecap="round" stroke-linejoin="round"/>
<path d="M20.498 4.99951V19.0015" stroke="#8E9293" stroke-width="1.5" stroke-miterlimit="1.5" stroke-linecap="round" stroke-linejoin="round"/>
<path d="M4.99902 20.5005H18.9992" stroke="#8E9293" stroke-width="1.5" stroke-miterlimit="1.5" stroke-linecap="round" stroke-linejoin="round"/>
<path d="M4.9984 19H2V21.9984H4.9984V19Z" stroke="#8E9293" stroke-width="1.5" stroke-miterlimit="1.5" stroke-linecap="round" stroke-linejoin="round"/>
<path d="M21.9974 2.00098H18.999V4.99938H21.9974V2.00098Z" stroke="#8E9293" stroke-width="1.5" stroke-miterlimit="1.5" stroke-linecap="round" stroke-linejoin="round"/>
<path d="M21.9974 19.001H18.999V21.9994H21.9974V19.001Z" stroke="#8E9293" stroke-width="1.5" stroke-miterlimit="1.5" stroke-linecap="round" stroke-linejoin="round"/>
<path d="M9 12H12H9ZM15 12H12H15ZM12 12V9V12ZM12 12V15V12Z" fill="#8E9293"/>
<path d="M12 12V15M9 12H12H9ZM15 12H12H15ZM12 12V9V12Z" stroke="#8E9293" stroke-width="1.5" stroke-linecap="round" stroke-linejoin="round"/>
</svg>
