<svg width="48" height="48" viewBox="0 0 48 48" fill="none" xmlns="http://www.w3.org/2000/svg">
<path d="M22 17L19.6 18L4.70344 24.7712C4.27504 24.9658 4 25.393 4 25.8636V26.1364C4 26.607 4.27504 27.0342 4.70344 27.2288L22.3448 35.2476C23.3964 35.7256 24.6036 35.7256 25.6552 35.2476L43.2966 27.2288C43.725 27.0342 44 26.607 44 26.1364V25.8636C44 25.393 43.725 24.9658 43.2966 24.7712L28.4 18L26 17" stroke="#21272A" stroke-width="1.5"/>
<path d="M44 26V34.224C44 34.6964 43.723 35.1246 43.2924 35.3184L25.6414 43.2614C24.5976 43.731 23.4024 43.731 22.3586 43.2614L4.70756 35.3184C4.27694 35.1246 4 34.6964 4 34.224V26" stroke="#21272A" stroke-width="1.5"/>
<path d="M24 16C20.6862 16 18 13.3137 18 10C18 6.6863 20.6862 4 24 4C27.3138 4 30 6.6863 30 10C30 13.3137 27.3138 16 24 16Z" stroke="#21272A" stroke-width="1.5" stroke-linecap="round" stroke-linejoin="round"/>
<path d="M22 16V26C22 27.1046 22.8954 28 24 28C25.1046 28 26 27.1046 26 26V16" stroke="#21272A" stroke-width="1.5"/>
<path d="M32 26H34" stroke="#21272A" stroke-width="1.5" stroke-linecap="round" stroke-linejoin="round"/>
</svg>
