<svg width="64" height="64" viewBox="0 0 64 64" fill="none" xmlns="http://www.w3.org/2000/svg">
<path d="M56.0007 5.33594L53.334 8.0026" stroke="#E7EAEB" stroke-width="3" stroke-linecap="round" stroke-linejoin="round"/>
<path d="M8 5.33594L10.6667 8.0026" stroke="#E7EAEB" stroke-width="3" stroke-linecap="round" stroke-linejoin="round"/>
<path d="M56.0007 42.6667L53.334 40" stroke="#E7EAEB" stroke-width="3" stroke-linecap="round" stroke-linejoin="round"/>
<path d="M8 42.6667L10.6667 40" stroke="#E7EAEB" stroke-width="3" stroke-linecap="round" stroke-linejoin="round"/>
<path d="M24 48H40" stroke="#E7EAEB" stroke-width="3" stroke-linecap="round" stroke-linejoin="round"/>
<path d="M26.666 56H37.3327" stroke="#E7EAEB" stroke-width="3" stroke-linecap="round" stroke-linejoin="round"/>
<path d="M32.0001 8C21.3332 8 15.8723 13.2008 16.0002 21.3333C16.0626 25.2984 17.3332 28 20.0002 30.6667C22.6673 33.3333 24.0006 34.6667 24.0002 40H40.0001C40.0006 34.6669 41.334 33.3333 43.9998 30.6669L44.0001 30.6667C46.6665 28 47.938 25.2984 48.0001 21.3333C48.1281 13.2008 42.6673 8 32.0001 8Z" stroke="#E7EAEB" stroke-width="3" stroke-linecap="round" stroke-linejoin="round"/>
</svg>
