<svg width="153" height="31" viewBox="0 0 153 31" fill="none" xmlns="http://www.w3.org/2000/svg">
<g clip-path="url(#clip0_1400_23388)">
<path d="M147.939 21.9895C151.313 21.9895 152.999 23.0599 152.999 25.2006C152.999 26.2045 152.77 27.0609 152.311 27.7695C151.852 28.4635 151.032 29.0097 149.848 29.4083C148.664 29.7922 147.022 29.9842 144.921 29.9842H134.934C135.052 27.12 135.112 24.4402 135.112 21.9452C135.112 19.4501 135.052 16.7704 134.934 13.9062H140.149V13.9283H144.877C146.711 13.9283 148.154 14.0833 149.205 14.3935C150.27 14.6887 151.017 15.1243 151.445 15.7C151.889 16.2758 152.112 17.0066 152.112 17.8924C152.112 18.7931 151.794 19.5976 151.158 20.3064C150.535 21.0003 149.463 21.5613 147.939 21.9895ZM140.149 17.9589V20.0185H144.411C145.328 20.0185 145.964 19.9373 146.319 19.7749C146.689 19.6124 146.874 19.3172 146.874 18.889C146.874 18.5495 146.682 18.3132 146.297 18.1803C145.927 18.0328 145.299 17.9589 144.411 17.9589H140.149ZM144.411 25.9314C145.18 25.9314 145.765 25.9019 146.163 25.8429C146.578 25.769 146.874 25.6509 147.051 25.4885C147.23 25.3114 147.318 25.0751 147.318 24.7799C147.318 24.396 147.104 24.1229 146.675 23.9604C146.26 23.7832 145.505 23.6947 144.411 23.6947H140.149V25.9314H144.411Z" fill="#2E2F33"/>
<path d="M123.267 30.2097C119.88 30.2097 117.386 29.4789 115.788 28.0173C114.191 26.5409 113.392 24.4739 113.392 21.8164C113.392 19.1885 114.183 17.1362 115.766 15.6598C117.364 14.1835 119.865 13.4453 123.267 13.4453C126.685 13.4453 129.186 14.1835 130.769 15.6598C132.367 17.1362 133.166 19.1885 133.166 21.8164C133.166 24.4887 132.374 26.5557 130.791 28.0173C129.208 29.4789 126.7 30.2097 123.267 30.2097ZM123.267 25.6919C124.91 25.6919 126.093 25.3819 126.819 24.7618C127.544 24.1269 127.906 23.1452 127.906 21.8164C127.906 20.5172 127.544 19.5502 126.819 18.9153C126.093 18.2804 124.91 17.963 123.267 17.963C121.641 17.963 120.464 18.2804 119.739 18.9153C119.014 19.5502 118.652 20.5172 118.652 21.8164C118.652 23.1304 119.014 24.1048 119.739 24.7396C120.464 25.3745 121.641 25.6919 123.267 25.6919Z" fill="#2E2F33"/>
<path d="M109.889 13.9062L111.62 29.9842H105.872L105.517 18.5125L103.298 29.9842H97.4833L95.2196 18.6011L94.8867 29.9842H89.1387L90.8698 13.9062H98.4154L100.346 24.3813L102.033 13.9062H109.889Z" fill="#2E2F33"/>
<path d="M77.4726 30.2097C74.0844 30.2097 71.5913 29.4789 69.9935 28.0173C68.3956 26.5409 67.5967 24.4739 67.5967 21.8164C67.5967 19.1885 68.3881 17.1362 69.9713 15.6598C71.5692 14.1835 74.0696 13.4453 77.4726 13.4453C80.8903 13.4453 83.3908 14.1835 84.9739 15.6598C86.5717 17.1362 87.3707 19.1885 87.3707 21.8164C87.3707 24.4887 86.5792 26.5557 84.996 28.0173C83.4129 29.4789 80.9051 30.2097 77.4726 30.2097ZM77.4726 25.6919C79.1149 25.6919 80.2985 25.3819 81.0235 24.7618C81.7484 24.1269 82.1109 23.1452 82.1109 21.8164C82.1109 20.5172 81.7484 19.5502 81.0235 18.9153C80.2985 18.2804 79.1149 17.963 77.4726 17.963C75.845 17.963 74.6688 18.2804 73.9439 18.9153C73.2189 19.5502 72.8564 20.5172 72.8564 21.8164C72.8564 23.1304 73.2189 24.1048 73.9439 24.7396C74.6688 25.3745 75.845 25.6919 77.4726 25.6919Z" fill="#2E2F33"/>
<path d="M64.9121 26.0422H65.8219V30.4271H60.5623H50.6641H45.4043V26.0422H46.514C47.1502 25.924 47.6385 25.6657 47.9787 25.2671C48.319 24.8685 48.5706 24.2336 48.7332 23.3625C48.8664 22.639 48.933 20.9929 48.933 18.4239L48.9108 13.9062L64.9121 13.9283V26.0422ZM53.9042 25.0899C53.8155 25.5032 53.7341 25.8207 53.6601 26.0422H59.2972V18.2468H54.326L54.3037 19.5313C54.3037 20.6533 54.2741 21.6425 54.215 22.4988C54.1706 23.3403 54.067 24.204 53.9042 25.0899Z" fill="#2E2F33"/>
<path d="M37.6252 27.386L37.5146 27.2422V27.4822L37.6252 27.386Z" fill="#F6662A"/>
<path fill-rule="evenodd" clip-rule="evenodd" d="M37.6245 27.3892C39.9823 25.5843 41.7508 23.1222 42.7064 20.3143C43.662 17.5064 43.7616 14.4788 42.9929 11.6145C42.2242 8.75003 40.6215 6.17742 38.3874 4.22194C36.1535 2.26647 33.3885 1.01595 30.4422 0.628523C27.4961 0.2411 24.5009 0.734173 21.8354 2.0454C19.1701 3.3566 16.9542 5.42708 15.4681 7.99498C13.9819 10.5629 13.2921 13.5129 13.4862 16.4719C13.636 18.7571 14.32 21.3576 15.4512 23.3299L21.1287 17.551C20.9862 17.0441 20.896 16.5212 20.8612 15.9905C20.7626 14.487 21.1131 12.988 21.8682 11.6833C22.6233 10.3785 23.7492 9.3265 25.1036 8.66026C26.4578 7.99402 27.9797 7.74349 29.4767 7.94034C30.9737 8.13719 32.3786 8.77259 33.5137 9.76617C34.6488 10.7598 35.4632 12.0669 35.8538 13.5223C36.2444 14.9778 36.1937 16.5162 35.7082 17.9428C35.4995 18.5559 35.2146 19.1365 34.8625 19.6721L37.5139 22.2548V27.2453L37.6245 27.3892Z" fill="#F6662A"/>
<path d="M5.85283 30.4863V11.0884C3.81706 11.766 1.86612 12.1472 0 12.232V4.693C3.70396 4.07181 6.34762 2.67415 7.93099 0.5H16.4981V30.4863H5.85283Z" fill="#F6662A"/>
<path d="M26.0635 22.2498L21.166 17.5938H22.8537L27.6851 22.2498V30.4061H26.0635V22.2498Z" fill="#F6662A"/>
<path d="M29.34 22.2498L24.4424 17.5938H26.1302L30.9615 22.2498V30.4061H29.34V22.2498Z" fill="#F6662A"/>
<path d="M32.6153 22.2498L27.7178 17.5938H29.4054L34.2369 22.2498V30.4061H32.6153V22.2498Z" fill="#F6662A"/>
<path d="M35.8918 22.2498L30.9941 17.5938H32.6818L37.5132 22.2498V30.4061H35.8918V22.2498Z" fill="#F6662A"/>
<path d="M21.0298 26.639V29.3794H19.2441V26.639H21.0298ZM23.2066 26.639V29.3794H21.4036V26.639H23.2066ZM23.2066 26.3246H21.4036V23.6094H23.2066V26.3246ZM21.0298 26.3246H19.2441V23.6094H21.0298V26.3246Z" fill="#F6662A"/>
</g>
<defs>
<clipPath id="clip0_1400_23388">
<rect width="153" height="30" fill="white" transform="translate(0 0.5)"/>
</clipPath>
</defs>
</svg>
