<svg width="78" height="78" viewBox="0 0 78 78" fill="none" xmlns="http://www.w3.org/2000/svg">
<path d="M61.2758 65.7844H16.1258C12.5635 65.7844 9.67578 62.8967 9.67578 59.3344V30.3094C9.67578 26.7471 12.5635 23.8594 16.1258 23.8594H61.2758C64.8381 23.8594 67.7258 26.7471 67.7258 30.3094V59.3344C67.7258 62.8967 64.8381 65.7844 61.2758 65.7844Z" stroke="#C7C9C9" stroke-width="1.5"/>
<path d="M53.2121 46.4359C52.3217 46.4359 51.5996 45.7139 51.5996 44.8234C51.5996 43.933 52.3217 43.2109 53.2121 43.2109C54.1025 43.2109 54.8246 43.933 54.8246 44.8234C54.8246 45.7139 54.1025 46.4359 53.2121 46.4359Z" fill="#C7C9C9" stroke="#C7C9C9" stroke-width="1.5" stroke-linecap="round" stroke-linejoin="round"/>
<path d="M58.0508 23.8566V19.352C58.0508 15.1141 54.0337 12.0278 49.9389 13.1197L14.4638 22.5798C11.6404 23.3327 9.67578 25.8898 9.67578 28.812V30.3066" stroke="#C7C9C9" stroke-width="1.5"/>
</svg>
