<svg width="78" height="78" viewBox="0 0 78 78" fill="none" xmlns="http://www.w3.org/2000/svg">
<path d="M38.7004 38.6984V48.3734M29.0254 38.6984H38.7004H29.0254ZM48.3754 38.6984H38.7004H48.3754ZM38.7004 38.6984V29.0234V38.6984Z" stroke="#C7C9C9" stroke-width="1.5" stroke-linecap="round" stroke-linejoin="round"/>
<path d="M12.9004 69.0181V8.38812C12.9004 7.31946 13.7667 6.45312 14.8354 6.45312H52.4115C52.9246 6.45312 53.4167 6.65698 53.7795 7.01989L63.9338 17.1739C64.2966 17.5368 64.5004 18.0289 64.5004 18.5421V69.0181C64.5004 70.0869 63.6341 70.9531 62.5654 70.9531H14.8354C13.7667 70.9531 12.9004 70.0869 12.9004 69.0181Z" stroke="#C7C9C9" stroke-width="1.5" stroke-linecap="round" stroke-linejoin="round"/>
<path d="M51.5996 17.4181V7.59332C51.5996 6.96361 52.1101 6.45312 52.74 6.45312C53.0422 6.45312 53.3321 6.57326 53.5462 6.78707L64.1655 17.4067C64.3796 17.6205 64.4996 17.9105 64.4996 18.2129C64.4996 18.8426 63.9891 19.3531 63.3592 19.3531H53.5346C52.4658 19.3531 51.5996 18.4868 51.5996 17.4181Z" stroke="#C7C9C9" stroke-width="1.5" stroke-linecap="round" stroke-linejoin="round"/>
</svg>
