<svg width="24" height="24" viewBox="0 0 24 24" fill="none" xmlns="http://www.w3.org/2000/svg">
<path d="M4.9984 2H2V4.9984H4.9984V2Z" stroke="#8E9293" stroke-width="1.5" stroke-miterlimit="1.5" stroke-linecap="round" stroke-linejoin="round"/>
<path d="M4.99854 3.5H18.9987" stroke="#8E9293" stroke-width="1.5" stroke-miterlimit="1.5" stroke-linecap="round" stroke-linejoin="round"/>
<path d="M3.5 5V19.0019" stroke="#8E9293" stroke-width="1.5" stroke-miterlimit="1.5" stroke-linecap="round" stroke-linejoin="round"/>
<path d="M20.4976 5V19.002" stroke="#8E9293" stroke-width="1.5" stroke-miterlimit="1.5" stroke-linecap="round" stroke-linejoin="round"/>
<path d="M4.99854 20.5H18.9987" stroke="#8E9293" stroke-width="1.5" stroke-miterlimit="1.5" stroke-linecap="round" stroke-linejoin="round"/>
<path d="M4.9984 19H2V21.9984H4.9984V19Z" stroke="#8E9293" stroke-width="1.5" stroke-miterlimit="1.5" stroke-linecap="round" stroke-linejoin="round"/>
<path d="M21.9974 2H18.999V4.9984H21.9974V2Z" stroke="#8E9293" stroke-width="1.5" stroke-miterlimit="1.5" stroke-linecap="round" stroke-linejoin="round"/>
<path d="M21.9974 19H18.999V21.9984H21.9974V19Z" stroke="#8E9293" stroke-width="1.5" stroke-miterlimit="1.5" stroke-linecap="round" stroke-linejoin="round"/>
<path d="M9 12H12H9ZM15 12H12H15ZM12 12V9V12ZM12 12V15V12Z" fill="#8E9293"/>
<path d="M12 12V15M9 12H12H9ZM15 12H12H15ZM12 12V9V12Z" stroke="#8E9293" stroke-width="1.5" stroke-linecap="round" stroke-linejoin="round"/>
</svg>
