<svg width="48" height="48" viewBox="0 0 48 48" fill="none" xmlns="http://www.w3.org/2000/svg">
<path d="M42 4L40 6" stroke="#141414" stroke-width="1.5" stroke-linecap="round" stroke-linejoin="round"/>
<path d="M6 4L8 6" stroke="#141414" stroke-width="1.5" stroke-linecap="round" stroke-linejoin="round"/>
<path d="M42 32L40 30" stroke="#141414" stroke-width="1.5" stroke-linecap="round" stroke-linejoin="round"/>
<path d="M6 32L8 30" stroke="#141414" stroke-width="1.5" stroke-linecap="round" stroke-linejoin="round"/>
<path d="M18 36H30" stroke="#141414" stroke-width="1.5" stroke-linecap="round" stroke-linejoin="round"/>
<path d="M20 42H28" stroke="#141414" stroke-width="1.5" stroke-linecap="round" stroke-linejoin="round"/>
<path d="M23.9996 6C15.9994 6 11.9037 9.90058 11.9997 16C12.0465 18.9738 12.9994 21 14.9997 23C17 25 18 26 17.9997 30H29.9996C30 26.0002 31 25 32.9994 23.0002L32.9996 23C34.9994 21 35.953 18.9738 35.9996 16C36.0956 9.90058 32 6 23.9996 6Z" stroke="#141414" stroke-width="1.5" stroke-linecap="round" stroke-linejoin="round"/>
</svg>
