<svg width="48" height="48" viewBox="0 0 48 48" fill="none" xmlns="http://www.w3.org/2000/svg">
<path d="M42 7.2V40.8C42 41.4628 41.4628 42 40.8 42H7.2C6.53726 42 6 41.4628 6 40.8V7.2C6 6.53726 6.53726 6 7.2 6H40.8C41.4628 6 42 6.53726 42 7.2Z" stroke="#141414" stroke-width="1.5" stroke-linecap="round" stroke-linejoin="round"/>
<path d="M6 32L20 26L42 36" stroke="#141414" stroke-width="1.5" stroke-linecap="round" stroke-linejoin="round"/>
<path d="M32 20C29.7908 20 28 18.2091 28 16C28 13.7909 29.7908 12 32 12C34.2092 12 36 13.7909 36 16C36 18.2091 34.2092 20 32 20Z" stroke="#141414" stroke-width="1.5" stroke-linecap="round" stroke-linejoin="round"/>
</svg>
