<svg width="78" height="78" viewBox="0 0 78 78" fill="none" xmlns="http://www.w3.org/2000/svg">
<path d="M38.6984 38.6999V48.3749M29.0234 38.6999H38.6984H29.0234ZM48.3734 38.6999H38.6984H48.3734ZM38.6984 38.6999V29.0249V38.6999Z" stroke="#C7C9C9" stroke-width="1.5" stroke-linecap="round" stroke-linejoin="round"/>
<path d="M12.8984 69.0149V8.38495C12.8984 7.31628 13.7648 6.44995 14.8334 6.44995H52.4095C52.9226 6.44995 53.4148 6.6538 53.7776 7.01671L63.9318 17.1707C64.2946 17.5336 64.4984 18.0258 64.4984 18.539V69.0149C64.4984 70.0837 63.6322 70.9499 62.5634 70.9499H14.8334C13.7648 70.9499 12.8984 70.0837 12.8984 69.0149Z" stroke="#C7C9C9" stroke-width="1.5" stroke-linecap="round" stroke-linejoin="round"/>
<path d="M51.6016 17.415V7.59015C51.6016 6.96044 52.1121 6.44995 52.7419 6.44995C53.0441 6.44995 53.334 6.57008 53.5482 6.7839L64.1675 17.4035C64.3816 17.6173 64.5016 17.9073 64.5016 18.2098C64.5016 18.8395 63.991 19.35 63.3612 19.35H53.5366C52.4678 19.35 51.6016 18.4836 51.6016 17.415Z" stroke="#C7C9C9" stroke-width="1.5" stroke-linecap="round" stroke-linejoin="round"/>
</svg>
