<svg width="78" height="78" viewBox="0 0 78 78" fill="none" xmlns="http://www.w3.org/2000/svg">
<path d="M61.2758 65.7834H16.1258C12.5635 65.7834 9.67578 62.8957 9.67578 59.3334V30.3084C9.67578 26.7462 12.5635 23.8584 16.1258 23.8584H61.2758C64.8381 23.8584 67.7258 26.7462 67.7258 30.3084V59.3334C67.7258 62.8957 64.8381 65.7834 61.2758 65.7834Z" stroke="#C7C9C9" stroke-width="1.5"/>
<path d="M53.2141 46.4334C52.3236 46.4334 51.6016 45.7113 51.6016 44.8209C51.6016 43.9305 52.3236 43.2084 53.2141 43.2084C54.1045 43.2084 54.8266 43.9305 54.8266 44.8209C54.8266 45.7113 54.1045 46.4334 53.2141 46.4334Z" fill="#C7C9C9" stroke="#C7C9C9" stroke-width="1.5" stroke-linecap="round" stroke-linejoin="round"/>
<path d="M58.0508 23.8582V19.3535C58.0508 15.1157 54.0337 12.0294 49.9389 13.1213L14.4638 22.5813C11.6404 23.3343 9.67578 25.8914 9.67578 28.8136V30.3082" stroke="#C7C9C9" stroke-width="1.5"/>
</svg>
