<svg width="48" height="48" viewBox="0 0 48 48" fill="none" xmlns="http://www.w3.org/2000/svg">
<path d="M42 4L40 6" stroke="#141414" stroke-width="1.5" stroke-linecap="round" stroke-linejoin="round"/>
<path d="M6 4L8 6" stroke="#141414" stroke-width="1.5" stroke-linecap="round" stroke-linejoin="round"/>
<path d="M42 32L40 30" stroke="#141414" stroke-width="1.5" stroke-linecap="round" stroke-linejoin="round"/>
<path d="M6 32L8 30" stroke="#141414" stroke-width="1.5" stroke-linecap="round" stroke-linejoin="round"/>
<path d="M18 36H30" stroke="#141414" stroke-width="1.5" stroke-linecap="round" stroke-linejoin="round"/>
<path d="M20 42H28" stroke="#141414" stroke-width="1.5" stroke-linecap="round" stroke-linejoin="round"/>
<path d="M24.0016 6C16.0013 6 11.9057 9.90058 12.0016 16C12.0484 18.9738 13.0013 21 15.0016 23C17.0019 25 18.002 26 18.0017 30H30.0016C30.002 26.0002 31.002 25 33.0014 23.0002L33.0016 23C35.0014 21 35.955 18.9738 36.0016 16C36.0976 9.90058 32.002 6 24.0016 6Z" stroke="#141414" stroke-width="1.5" stroke-linecap="round" stroke-linejoin="round"/>
</svg>
